# xmcd
#
# Track frame offsets: 
#        187
#        19287
#        50617
#        69132
#        89640
#        102622
#        124067
#        142222
#        158515
#        179840
#        193477
#        209217
#        223432
#
# Disc length: 3205 seconds
#
# Revision: 4
# Processed by: cddbd v1.5.2PL0 Copyright (c) Steve Scherf et al.
# Submitted via: ExactAudioCopy v0.95b4
#
DISCID=df0c830d
DTITLE=Various Artist - Samba De Carneval De Brasil
DYEAR=1989
DGENRE=Samba
TTITLE0=Caprichoso De Pilares - Brazil Nao Seremos Jamais, Du Seremos
TTITLE1=Caprichoso De Pilares - Festejando
TTITLE2=Uniao Da Ilha Do Governador - Assambraco
TTITLE3=Estacio De Sa - Prato Da Nolte
TTITLE4=Toquinho E Vinicius - Blues Para Emmett
TTITLE5=Banda Do Carnaval - Viva Meu Samba
TTITLE6=Sao Clemente - Pouca Saude, Muita Sauva, Os Males Do Brasil Sa
TTITLE6=o!
TTITLE7=Unidos De Lucas - No Ano Da Copa Bota No Melo
TTITLE8=Acadenmicos Do Salguetro - Tem Que Se Tirar Da Cabeca O Que Na
TTITLE8=o Temos No Balso
TTITLE9=Banda Do Carnaval - Cass De Samba
TTITLE10=Unidos Da Tijuca - Cama, Mesa, E Banho De Gato
TTITLE11=Banda Do Carnaval - Maria Biana Maria Al Que Saudade De Ameli
TTITLE11=a E Priciso Muito Amor
TTITLE12=Academicos Do Engenho Da Rainha - Ganga Zumba Raiz De Liberda
TTITLE12=de
EXTD=more info\nMillenniumMusicProjectFormat, AKALibraryCondensedForma
EXTD=t alphabetically by title - syntax as follows:\nTitle{Subtitle}[in
EXTD=fo](Lyricist;Composer;Date,Artist,Location)[info]\ncorrections to
EXTD=: windking@gmail.com
EXTT0=Caprichoso De Pilares
EXTT1=Caprichoso De Pilares
EXTT2=Uniao Da Ilha Do Governador
EXTT3=Estacio De Sa
EXTT4=Toquinho and Vinicius
EXTT5=Banda Do Carneval
EXTT6=Sao Clemente
EXTT7=Unidos De Lucas
EXTT8=ACadenmicos Do Salguetro
EXTT9=Banda Do Carneval
EXTT10=Unido Da Tijuca
EXTT11=Banda Do Carneval
EXTT12=ACademicos Do Engenho Da Rainha
PLAYORDER=
